<svg version="1.1" xmlns="http://www.w3.org/2000/svg" viewBox="0 0 1959.2412550184467 1405.8611111111115" width="1959.2412550184467" height="1405.8611111111115">
  <!-- svg-source:excalidraw -->
  
  <defs>
    <style class="style-fonts">
      @font-face {
        font-family: "Virgil";
        src: url("https://excalidraw.com/Virgil.woff2");
      }
      @font-face {
        font-family: "Cascadia";
        src: url("https://excalidraw.com/Cascadia.woff2");
      }
    </style>
    
  </defs>
  <rect x="0" y="0" width="1959.2412550184467" height="1405.8611111111115" fill="#ffffff"></rect><g stroke-linecap="round"><g transform="translate(594.5058593749984 950.4296874999998) rotate(0 353.5231858156621 -272.31389842256885)"><path d="M0.69 0.25 C92.8 -29.63, 435.93 -88.73, 553.54 -179.58 C671.16 -270.44, 680.69 -484.11, 706.36 -544.88" stroke="#1971c2" stroke-width="4.5" fill="none" stroke-dasharray="8 12"></path></g><g transform="translate(594.5058593749984 950.4296874999998) rotate(0 353.5231858156621 -272.31389842256885)"><path d="M709.91 -513.51 C706.83 -528.22, 707.93 -537.44, 708.18 -544.07" stroke="#1971c2" stroke-width="4.5" fill="none"></path></g><g transform="translate(594.5058593749984 950.4296874999998) rotate(0 353.5231858156621 -272.31389842256885)"><path d="M690 -518.48 C694.38 -531.44, 702.95 -538.79, 708.18 -544.07" stroke="#1971c2" stroke-width="4.5" fill="none"></path></g></g><mask></mask><g stroke-linecap="round"><g transform="translate(430.8496093749986 153.52343750000003) rotate(0 -12.297527024894919 140.01360629573463)"><path d="M0.8 -0.82 C-3.41 45.79, -20.95 233.9, -25.39 280.85" stroke="#1971c2" stroke-width="4.5" fill="none" stroke-dasharray="8 12"></path></g><g transform="translate(430.8496093749986 153.52343750000003) rotate(0 -12.297527024894919 140.01360629573463)"><path d="M-34.34 253.07 C-29.38 260.59, -27.14 269, -24.01 282.31" stroke="#1971c2" stroke-width="4.5" fill="none"></path></g><g transform="translate(430.8496093749986 153.52343750000003) rotate(0 -12.297527024894919 140.01360629573463)"><path d="M-13.91 254.98 C-14.87 262.08, -18.55 269.95, -24.01 282.31" stroke="#1971c2" stroke-width="4.5" fill="none"></path></g></g><mask></mask><g stroke-linecap="round"><g transform="translate(367.2636718749986 507.82812499999983) rotate(0 -9.498305644840002 216.74134292826056)"><path d="M0.02 0.9 C-3.29 73.06, -15.93 360.6, -19.02 432.58" stroke="#1971c2" stroke-width="4.5" fill="none" stroke-dasharray="8 12"></path></g><g transform="translate(367.2636718749986 507.82812499999983) rotate(0 -9.498305644840002 216.74134292826056)"><path d="M-26.54 403.5 C-23.61 415.07, -19.85 423.78, -21.01 433.3" stroke="#1971c2" stroke-width="4.5" fill="none"></path></g><g transform="translate(367.2636718749986 507.82812499999983) rotate(0 -9.498305644840002 216.74134292826056)"><path d="M-6.04 404.39 C-10.75 415.63, -14.65 424.01, -21.01 433.3" stroke="#1971c2" stroke-width="4.5" fill="none"></path></g></g><mask></mask><g stroke-linecap="round" transform="translate(279.96484375000006 96.85468207465345) rotate(0 169.328125 25.265625)"><path d="M12.63 0 M12.63 0 C105.14 -0.71, 195.63 1.05, 326.02 0 M12.63 0 C100.84 1.24, 187.8 0.09, 326.02 0 M326.02 0 C335.64 1.25, 336.8 3.75, 338.66 12.63 M326.02 0 C335.58 0.29, 337.47 3.62, 338.66 12.63 M338.66 12.63 C339.2 20.45, 337.53 26.55, 338.66 37.9 M338.66 12.63 C338.56 20.87, 338.43 28.58, 338.66 37.9 M338.66 37.9 C337.04 45.56, 334.07 49.64, 326.02 50.53 M338.66 37.9 C337.51 47.32, 334.7 50.47, 326.02 50.53 M326.02 50.53 C245.47 51.13, 161.58 51.4, 12.63 50.53 M326.02 50.53 C210.74 50.92, 94.75 49.84, 12.63 50.53 M12.63 50.53 C3.54 50.88, 1.56 45.76, 0 37.9 M12.63 50.53 C5.14 49.55, -1.86 47.63, 0 37.9 M0 37.9 C-0.23 27.72, -1.81 20.64, 0 12.63 M0 37.9 C0.38 32.3, -0.79 27.61, 0 12.63 M0 12.63 C1.13 5.73, 2.29 -0.3, 12.63 0 M0 12.63 C-0.02 4.39, 5.16 1.89, 12.63 0" stroke="#1e1e1e" stroke-width="1" fill="none"></path></g><g transform="translate(321.8630294799805 110.48358832465345) rotate(0 127.42993927001953 12.5)"><text x="0" y="0" font-family="Virgil, Segoe UI Emoji" font-size="20px" fill="#1e1e1e" text-anchor="start" style="white-space: pre;" direction="ltr" dominant-baseline="text-before-edge">1) Не гоняться за мечтами</text></g><g transform="translate(510.98828125000006 179.70233832465345) rotate(0 230.19989013671875 12.5)"><text x="0" y="0" font-family="Virgil, Segoe UI Emoji" font-size="20px" fill="#1e1e1e" text-anchor="start" style="white-space: pre;" direction="ltr" dominant-baseline="text-before-edge">Определите свои сильные стороны и таланты</text></g><g transform="translate(513.58984375 228.84686957465345) rotate(0 227.7398681640625 25)"><text x="0" y="0" font-family="Virgil, Segoe UI Emoji" font-size="20px" fill="#1e1e1e" text-anchor="start" style="white-space: pre;" direction="ltr" dominant-baseline="text-before-edge">Изучите различные области, чтобы найти ту, </text><text x="0" y="25" font-family="Virgil, Segoe UI Emoji" font-size="20px" fill="#1e1e1e" text-anchor="start" style="white-space: pre;" direction="ltr" dominant-baseline="text-before-edge">где вы сможете быть лучшими.</text></g><g transform="translate(519.73828125 301.71015082465345) rotate(0 193.73989868164062 25)"><text x="0" y="0" font-family="Virgil, Segoe UI Emoji" font-size="20px" fill="#1e1e1e" text-anchor="start" style="white-space: pre;" direction="ltr" dominant-baseline="text-before-edge">Составьте план действий по развитию </text><text x="0" y="25" font-family="Virgil, Segoe UI Emoji" font-size="20px" fill="#1e1e1e" text-anchor="start" style="white-space: pre;" direction="ltr" dominant-baseline="text-before-edge">своих навыков и талантов</text></g><g stroke-linecap="round"><g transform="translate(429.75000000000006 157.10207790798677) rotate(0 36.74858569828325 16.03035955100559)"><path d="M0.71 -0.25 C4.84 3.85, 12.99 19.14, 25.18 24.76 C37.38 30.38, 65.75 32.17, 73.88 33.49 M-0.38 -1.43 C3.57 2.79, 11.99 20.35, 24.29 25.88 C36.58 31.41, 65.03 30.4, 73.4 31.75" stroke="#1e1e1e" stroke-width="1" fill="none"></path></g><g transform="translate(429.75000000000006 157.10207790798677) rotate(0 36.74858569828325 16.03035955100559)"><path d="M49.56 38.68 C56.47 37.02, 67.48 34.88, 73.96 32.38 M50.05 38.82 C56.86 35.75, 61.37 34.74, 72.54 32.72" stroke="#1e1e1e" stroke-width="1" fill="none"></path></g><g transform="translate(429.75000000000006 157.10207790798677) rotate(0 36.74858569828325 16.03035955100559)"><path d="M50.7 22.05 C57.25 25.94, 67.88 29.35, 73.96 32.38 M51.18 22.19 C57.59 23.31, 61.8 26.49, 72.54 32.72" stroke="#1e1e1e" stroke-width="1" fill="none"></path></g></g><mask></mask><g stroke-linecap="round"><g transform="translate(415.98828125000006 149.39895290798677) rotate(0 46.837811563163996 55.22796235351106)"><path d="M-0.91 0.72 C2.94 12.85, 7.74 53.58, 23.66 71.86 C39.58 90.14, 82.73 104.16, 94.59 110.41 M0.81 0.05 C4.53 11.93, 7.63 52.15, 23.19 70.19 C38.75 88.24, 82.11 101.66, 94.15 108.31" stroke="#1e1e1e" stroke-width="1" fill="none"></path></g><g transform="translate(415.98828125000006 149.39895290798677) rotate(0 46.837811563163996 55.22796235351106)"><path d="M65.41 107.9 C75.99 108.33, 85.68 109.34, 93.18 108.53 M63.97 106.97 C72.85 105.87, 82.38 107.16, 94.8 109.17" stroke="#1e1e1e" stroke-width="1" fill="none"></path></g><g transform="translate(415.98828125000006 149.39895290798677) rotate(0 46.837811563163996 55.22796235351106)"><path d="M73.65 89.11 C81.23 95.97, 88.08 103.47, 93.18 108.53 M72.21 88.18 C78.68 92.77, 85.75 99.69, 94.8 109.17" stroke="#1e1e1e" stroke-width="1" fill="none"></path></g></g><mask></mask><g stroke-linecap="round"><g transform="translate(408.19140625000006 147.09686957465345) rotate(0 50.87044749036431 91.26341528738385)"><path d="M-0.61 -0.21 C1.9 20.21, -1.07 91.32, 16.09 122 C33.25 152.68, 87.83 173.5, 102.35 183.89 M1.28 -1.37 C3.61 18.79, -1.05 89.93, 15.64 120.46 C32.34 151, 86.76 171.55, 101.45 181.87" stroke="#1e1e1e" stroke-width="1" fill="none"></path></g><g transform="translate(408.19140625000006 147.09686957465345) rotate(0 50.87044749036431 91.26341528738385)"><path d="M71.46 178.84 C85.19 178.79, 95.87 182.03, 103.22 181.91 M71.15 178.05 C80.11 177.54, 89.97 179.37, 102.35 182.25" stroke="#1e1e1e" stroke-width="1" fill="none"></path></g><g transform="translate(408.19140625000006 147.09686957465345) rotate(0 50.87044749036431 91.26341528738385)"><path d="M81.36 160.87 C91.16 167.76, 97.98 177.99, 103.22 181.91 M81.05 160.08 C87.06 165.15, 93.88 172.51, 102.35 182.25" stroke="#1e1e1e" stroke-width="1" fill="none"></path></g></g><mask></mask><g transform="translate(57.15234375000006 207.18671332465345) rotate(0 134.36993408203125 25)"><text x="0" y="0" font-family="Virgil, Segoe UI Emoji" font-size="20px" fill="#1e1e1e" text-anchor="start" style="white-space: pre;" direction="ltr" dominant-baseline="text-before-edge">Пытаться подогнать свою </text><text x="0" y="25" font-family="Virgil, Segoe UI Emoji" font-size="20px" fill="#1e1e1e" text-anchor="start" style="white-space: pre;" direction="ltr" dominant-baseline="text-before-edge">мечту под успешную карьеру</text></g><g transform="translate(10 634.9562445746535) rotate(0 126.5799255371094 50)"><text x="0" y="0" font-family="Virgil, Segoe UI Emoji" font-size="20px" fill="#1e1e1e" text-anchor="start" style="white-space: pre;" direction="ltr" dominant-baseline="text-before-edge">бросить текущую работу </text><text x="0" y="25" font-family="Virgil, Segoe UI Emoji" font-size="20px" fill="#1e1e1e" text-anchor="start" style="white-space: pre;" direction="ltr" dominant-baseline="text-before-edge">ради обещаний легкого </text><text x="0" y="50" font-family="Virgil, Segoe UI Emoji" font-size="20px" fill="#1e1e1e" text-anchor="start" style="white-space: pre;" direction="ltr" dominant-baseline="text-before-edge">заработка</text><text x="0" y="75" font-family="Virgil, Segoe UI Emoji" font-size="20px" fill="#1e1e1e" text-anchor="start" style="white-space: pre;" direction="ltr" dominant-baseline="text-before-edge">в другой сфере</text></g><g transform="translate(42.83203124999994 312.68671332465345) rotate(0 133.94993591308594 37.5)"><text x="0" y="0" font-family="Virgil, Segoe UI Emoji" font-size="20px" fill="#1e1e1e" text-anchor="start" style="white-space: pre;" direction="ltr" dominant-baseline="text-before-edge">много времени тратить на </text><text x="0" y="25" font-family="Virgil, Segoe UI Emoji" font-size="20px" fill="#1e1e1e" text-anchor="start" style="white-space: pre;" direction="ltr" dominant-baseline="text-before-edge">самокопания и поиск </text><text x="0" y="50" font-family="Virgil, Segoe UI Emoji" font-size="20px" fill="#1e1e1e" text-anchor="start" style="white-space: pre;" direction="ltr" dominant-baseline="text-before-edge">истинного призвания</text></g><g mask="url(#mask-HRXl4Fp-xSYMZaT1r3JgG)" stroke-linecap="round"><g transform="translate(409.11245250914277 160.71796332465345) rotate(0 -37.25153996224526 38.925092636876386)"><path d="M-0.96 1.02 C-13.13 13.78, -62.11 63.51, -74.13 76.27 M0.73 0.51 C-11.52 13.42, -62.87 64.85, -75.24 77.34" stroke="#e03131" stroke-width="1" fill="none"></path></g><g transform="translate(409.11245250914277 160.71796332465345) rotate(0 -37.25153996224526 38.925092636876386)"><path d="M-60.94 49.6 C-66.79 56.86, -67.21 59.63, -75.69 75.84 M-61.94 50.72 C-65.75 57.47, -70.05 63.66, -75.87 76.39" stroke="#e03131" stroke-width="1" fill="none"></path></g><g transform="translate(409.11245250914277 160.71796332465345) rotate(0 -37.25153996224526 38.925092636876386)"><path d="M-46.39 64.07 C-55.21 68.22, -58.64 68, -75.69 75.84 M-47.39 65.19 C-54.92 68.25, -62.96 70.73, -75.87 76.39" stroke="#e03131" stroke-width="1" fill="none"></path></g></g><mask id="mask-HRXl4Fp-xSYMZaT1r3JgG"><rect x="0" y="0" fill="#fff" width="582.9319362682854" height="337.87864610420144"></rect><rect x="340.30273199187604" y="186.79830471442745" fill="#000" width="63.799957275390625" height="25" opacity="1"></rect></mask><g transform="translate(340.30273199187604 186.79830471442745) rotate(0 31.55818055502141 12.844751247102394)"><text x="31.899978637695312" y="0" font-family="Virgil, Segoe UI Emoji" font-size="20px" fill="#e03131" text-anchor="middle" style="white-space: pre;" direction="ltr" dominant-baseline="text-before-edge">опасно</text></g><g mask="url(#mask-gWWXArL_PbVGyuTB17BfE)" stroke-linecap="round"><g transform="translate(371.35397190701013 515.5226508246535) rotate(0 -49.58451369248695 92.72824509632738)"><path d="M0.17 0.09 C-16.09 30.91, -81.98 154.09, -98.25 184.82 M-1.2 -0.92 C-17.58 30.13, -83.22 155.29, -99.34 186.37" stroke="#e03131" stroke-width="1" fill="none"></path></g><g transform="translate(371.35397190701013 515.5226508246535) rotate(0 -49.58451369248695 92.72824509632738)"><path d="M-95.25 156.18 C-96.34 164.77, -97.92 170.78, -98.76 184.87 M-95.55 156.43 C-96.76 167.79, -99.15 179.92, -99.61 186.77" stroke="#e03131" stroke-width="1" fill="none"></path></g><g transform="translate(371.35397190701013 515.5226508246535) rotate(0 -49.58451369248695 92.72824509632738)"><path d="M-77.06 165.68 C-82.57 171.98, -88.57 175.69, -98.76 184.87 M-77.36 165.92 C-85.79 173.51, -95.44 181.86, -99.61 186.77" stroke="#e03131" stroke-width="1" fill="none"></path></g></g><mask id="mask-gWWXArL_PbVGyuTB17BfE"><rect x="0" y="0" fill="#fff" width="569.3348359038639" height="800.3149681452082"></rect><rect x="290.4635612708879" y="595.418809484931" fill="#000" width="63.799957275390625" height="25" opacity="1"></rect></mask><g transform="translate(290.4635612708878 595.4188094849308) rotate(0 31.305896943635332 12.83208643605002)"><text x="31.899978637695312" y="0" font-family="Virgil, Segoe UI Emoji" font-size="20px" fill="#e03131" text-anchor="middle" style="white-space: pre;" direction="ltr" dominant-baseline="text-before-edge">опасно</text></g><g mask="url(#mask-JvdqSXlz2wFoLAC7n-dh_)" stroke-linecap="round"><g transform="translate(286.8565823594798 1018.4679633246535) rotate(0 -42.05827791655625 56.212745163562204)"><path d="M-0.18 -1.09 C-14.11 17.73, -69.4 94.59, -83.18 113.52 M-1.74 0.95 C-15.82 19.39, -70.34 93.1, -83.93 111.9" stroke="#e03131" stroke-width="1" fill="none"></path></g><g transform="translate(286.8565823594798 1018.4679633246535) rotate(0 -42.05827791655625 56.212745163562204)"><path d="M-77.36 83.72 C-76.58 93.72, -81.09 100.4, -82.26 110.38 M-75.6 83.05 C-77.45 92.61, -81.46 100.8, -83.91 112.56" stroke="#e03131" stroke-width="1" fill="none"></path></g><g transform="translate(286.8565823594798 1018.4679633246535) rotate(0 -42.05827791655625 56.212745163562204)"><path d="M-60.81 95.85 C-65.57 101.81, -75.57 104.47, -82.26 110.38 M-59.05 95.18 C-65.83 101.12, -74.8 105.67, -83.91 112.56" stroke="#e03131" stroke-width="1" fill="none"></path></g></g><mask id="mask-JvdqSXlz2wFoLAC7n-dh_"><rect x="0" y="0" fill="#fff" width="470.4172662814596" height="1231.026331792883"></rect><rect x="213.17626176079443" y="1062.2471475587681" fill="#000" width="63.799957275390625" height="25" opacity="1"></rect></mask><g transform="translate(213.1762617607945 1062.2471475587681) rotate(0 31.622042682129035 12.433560929447367)"><text x="31.899978637695312" y="0" font-family="Virgil, Segoe UI Emoji" font-size="20px" fill="#e03131" text-anchor="middle" style="white-space: pre;" direction="ltr" dominant-baseline="text-before-edge">опасно</text></g><g mask="url(#mask-nw7_Bwezqw5xJmjFw_er7)" stroke-linecap="round"><g transform="translate(407.182167686121 157.71796332465345) rotate(0 -94.19260200996422 106.15778596323449)"><path d="M0.62 -0.11 C-7.12 20.61, -14.09 89.5, -45.67 125.11 C-77.24 160.71, -164.6 198.94, -188.82 213.52 M-0.51 -1.21 C-7.92 19.1, -11.85 87.91, -43.27 123.39 C-74.68 158.87, -164.33 196.62, -189.01 211.68" stroke="#e03131" stroke-width="1" fill="none"></path></g><g transform="translate(407.182167686121 157.71796332465345) rotate(0 -94.19260200996422 106.15778596323449)"><path d="M-168.94 188.55 C-174.75 199.6, -181.87 204.07, -188.93 212.36 M-168.04 190.14 C-173.82 195.9, -180.83 201.61, -189.74 211.88" stroke="#e03131" stroke-width="1" fill="none"></path></g><g transform="translate(407.182167686121 157.71796332465345) rotate(0 -94.19260200996422 106.15778596323449)"><path d="M-159.45 206.74 C-168.86 211.17, -179.45 208.97, -188.93 212.36 M-158.54 208.34 C-167.02 208.85, -176.75 209.36, -189.74 211.88" stroke="#e03131" stroke-width="1" fill="none"></path></g></g><mask id="mask-nw7_Bwezqw5xJmjFw_er7"><rect x="0" y="0" fill="#fff" width="697.1040426861209" height="470.28827582465345"></rect><rect x="330.21148831468804" y="269.5519151660724" fill="#000" width="63.799957275390625" height="25" opacity="1"></rect></mask><g transform="translate(330.21148831468804 269.55191516607243) rotate(0 -17.221922638531225 -5.676165878184435)"><text x="31.899978637695312" y="0" font-family="Virgil, Segoe UI Emoji" font-size="20px" fill="#e03131" text-anchor="middle" style="white-space: pre;" direction="ltr" dominant-baseline="text-before-edge">опасно</text></g><g transform="translate(267.04687500000006 458.01874457465345) rotate(0 179.21990966796875 12.5)"><text x="0" y="0" font-family="Virgil, Segoe UI Emoji" font-size="20px" fill="#1e1e1e" text-anchor="start" style="white-space: pre;" direction="ltr" dominant-baseline="text-before-edge">2) Накопление карьерного капитала</text></g><g stroke-linecap="round" transform="translate(249.77343750000006 439.47919379340345) rotate(0 198.0703125 30.513671875)"><path d="M15.26 0 M15.26 0 C157.7 -0.83, 298.08 -0.48, 380.88 0 M15.26 0 C143.98 1.08, 271.87 1.15, 380.88 0 M380.88 0 C390.38 -1.33, 398.08 6.23, 396.14 15.26 M380.88 0 C389.94 0.64, 396.07 6.11, 396.14 15.26 M396.14 15.26 C396.95 25.83, 397.04 35.49, 396.14 45.77 M396.14 15.26 C396.46 22.45, 396.46 31.98, 396.14 45.77 M396.14 45.77 C396.28 55.7, 391.76 61.55, 380.88 61.03 M396.14 45.77 C395.31 57.35, 393.13 61.49, 380.88 61.03 M380.88 61.03 C249.58 59.97, 119 60.45, 15.26 61.03 M380.88 61.03 C239.14 59.24, 97.43 59.37, 15.26 61.03 M15.26 61.03 C4.07 59.3, 0.81 55.04, 0 45.77 M15.26 61.03 C6.49 59.73, 1.88 58.09, 0 45.77 M0 45.77 C0.94 40.01, -0.19 30.47, 0 15.26 M0 45.77 C0.85 37.67, -1.02 26.9, 0 15.26 M0 15.26 C-0.32 3.91, 4.69 1.67, 15.26 0 M0 15.26 C-0.76 6.09, 3.56 1.78, 15.26 0" stroke="#1e1e1e" stroke-width="1" fill="none"></path></g><g transform="translate(468.42187500000006 537.4010687934035) rotate(0 283.33984375 25)"><text x="0" y="0" font-family="Virgil, Segoe UI Emoji" font-size="20px" fill="#1e1e1e" text-anchor="start" style="white-space: pre;" direction="ltr" dominant-baseline="text-before-edge">развивать редкие и ценные профессиональные качества, </text><text x="0" y="25" font-family="Virgil, Segoe UI Emoji" font-size="20px" fill="#1e1e1e" text-anchor="start" style="white-space: pre;" direction="ltr" dominant-baseline="text-before-edge">которые будут интересны работодателям или людям</text></g><g transform="translate(449.56640625000006 609.6901312934035) rotate(0 146.419921875 37.5)"><text x="0" y="0" font-family="Virgil, Segoe UI Emoji" font-size="20px" fill="#1e1e1e" text-anchor="start" style="white-space: pre;" direction="ltr" dominant-baseline="text-before-edge">deliberately practice - </text><text x="0" y="25" font-family="Virgil, Segoe UI Emoji" font-size="20px" fill="#1e1e1e" text-anchor="start" style="white-space: pre;" direction="ltr" dominant-baseline="text-before-edge">метод приобретения навыков </text><text x="0" y="50" font-family="Virgil, Segoe UI Emoji" font-size="20px" fill="#1e1e1e" text-anchor="start" style="white-space: pre;" direction="ltr" dominant-baseline="text-before-edge">путем постоянной работы </text></g><g transform="translate(441.58593750000006 731.9596625434035) rotate(0 82.28995513916016 12.5)"><text x="0" y="0" font-family="Virgil, Segoe UI Emoji" font-size="20px" fill="#1e1e1e" text-anchor="start" style="white-space: pre;" direction="ltr" dominant-baseline="text-before-edge">ценные привычки</text></g><g transform="translate(389.03906250000006 778.8737250434035) rotate(0 163.25990295410156 25)"><text x="0" y="0" font-family="Virgil, Segoe UI Emoji" font-size="20px" fill="#1e1e1e" text-anchor="start" style="white-space: pre;" direction="ltr" dominant-baseline="text-before-edge">Находите наставников, </text><text x="0" y="25" font-family="Virgil, Segoe UI Emoji" font-size="20px" fill="#1e1e1e" text-anchor="start" style="white-space: pre;" direction="ltr" dominant-baseline="text-before-edge">которые могут помочь вам расти</text></g><g transform="translate(879.1328125 661.8463812934035) rotate(0 93.49996185302734 12.5)"><text x="0" y="0" font-family="Virgil, Segoe UI Emoji" font-size="20px" fill="#1e1e1e" text-anchor="start" style="white-space: pre;" direction="ltr" dominant-baseline="text-before-edge">книга учета знаний</text></g><g transform="translate(871.01953125 744.7604437934035) rotate(0 104.1999282836914 25)"><text x="0" y="0" font-family="Virgil, Segoe UI Emoji" font-size="20px" fill="#1e1e1e" text-anchor="start" style="white-space: pre;" direction="ltr" dominant-baseline="text-before-edge">система учета </text><text x="0" y="25" font-family="Virgil, Segoe UI Emoji" font-size="20px" fill="#1e1e1e" text-anchor="start" style="white-space: pre;" direction="ltr" dominant-baseline="text-before-edge">потраченного времени</text></g><g transform="translate(248.06640625000006 967.7101508246535) rotate(0 168.76992797851562 12.5)"><text x="0" y="0" font-family="Virgil, Segoe UI Emoji" font-size="20px" fill="#1e1e1e" text-anchor="start" style="white-space: pre;" direction="ltr" dominant-baseline="text-before-edge">3) признание за свои достижения </text></g><g stroke-linecap="round" transform="translate(231.73828125000006 952.7487250434035) rotate(0 184.44140625 28.162109375)"><path d="M14.08 0 M14.08 0 C138.25 -1.1, 263.8 -2.23, 354.8 0 M14.08 0 C96.93 0.9, 179.7 1.13, 354.8 0 M354.8 0 C362.43 0.03, 368.02 5.59, 368.88 14.08 M354.8 0 C364.42 -0.63, 369.89 4.19, 368.88 14.08 M368.88 14.08 C369.14 22.38, 370.13 29.65, 368.88 42.24 M368.88 14.08 C368.4 24.6, 369.36 34.03, 368.88 42.24 M368.88 42.24 C368.28 51.89, 365.82 57.16, 354.8 56.32 M368.88 42.24 C367.67 52.46, 363.49 54.42, 354.8 56.32 M354.8 56.32 C218.57 54.48, 82.68 54.93, 14.08 56.32 M354.8 56.32 C260.83 56.81, 167.14 57.52, 14.08 56.32 M14.08 56.32 C6.24 58.2, 1.57 52.44, 0 42.24 M14.08 56.32 C5.39 57.12, -2.06 53.54, 0 42.24 M0 42.24 C1.33 30.37, -0.94 22.65, 0 14.08 M0 42.24 C-0.82 32.88, 0.61 24.59, 0 14.08 M0 14.08 C0.88 3.83, 5.34 -0.75, 14.08 0 M0 14.08 C0.04 5.1, 5.78 -0.66, 14.08 0" stroke="#1e1e1e" stroke-width="1" fill="none"></path></g><g stroke-linecap="round"><g transform="translate(614.5820312500002 736.8303967378192) rotate(0 127.76143393871831 -26.197337133749784)"><path d="M0.75 -0.81 C43.26 -9.49, 213.41 -43.29, 255.83 -52.07 M-0.31 1.38 C42.03 -7.64, 212.79 -44.8, 255.28 -53.78" stroke="#1e1e1e" stroke-width="1" fill="none"></path></g><g transform="translate(614.5820312500002 736.8303967378192) rotate(0 127.76143393871831 -26.197337133749784)"><path d="M228.53 -36.56 C240.56 -43.46, 247.55 -49.34, 254.39 -51.89 M229.33 -37.64 C236.97 -41.61, 244.23 -47.34, 256.26 -53" stroke="#1e1e1e" stroke-width="1" fill="none"></path></g><g transform="translate(614.5820312500002 736.8303967378192) rotate(0 127.76143393871831 -26.197337133749784)"><path d="M224.22 -56.62 C237.85 -56.16, 246.42 -54.64, 254.39 -51.89 M225.01 -57.7 C233.99 -55.7, 242.53 -55.46, 256.26 -53" stroke="#1e1e1e" stroke-width="1" fill="none"></path></g></g><mask></mask><g stroke-linecap="round"><g transform="translate(618.4609375 749.466608201757) rotate(0 123.92953093275423 8.62461512577471)"><path d="M-0.87 -0.91 C40.42 2.09, 206.88 13.87, 248.73 17.03 M0.88 1.23 C41.89 4.45, 206.05 15.11, 247.57 18.15" stroke="#1e1e1e" stroke-width="1" fill="none"></path></g><g transform="translate(618.4609375 749.466608201757) rotate(0 123.92953093275423 8.62461512577471)"><path d="M217.23 25.79 C228.52 25.26, 241.26 20.5, 245.61 17.54 M218.07 26.72 C226.89 23.48, 234.63 22.02, 248.22 18.04" stroke="#1e1e1e" stroke-width="1" fill="none"></path></g><g transform="translate(618.4609375 749.466608201757) rotate(0 123.92953093275423 8.62461512577471)"><path d="M218.64 5.32 C229.22 12.61, 241.42 15.69, 245.61 17.54 M219.47 6.25 C227.97 8.32, 235.35 12.18, 248.22 18.04" stroke="#1e1e1e" stroke-width="1" fill="none"></path></g></g><mask></mask><g stroke-linecap="round"><g transform="translate(423.78513210055434 506.57660590277845) rotate(0 19.723994629946446 32.34476710141246)"><path d="M0.12 1.1 C6.53 11.71, 32.08 53.64, 38.38 64.06 M-1.28 0.63 C5.53 10.84, 33.82 51.46, 40.73 62.17" stroke="#1e1e1e" stroke-width="1" fill="none"></path></g><g transform="translate(423.78513210055434 506.57660590277845) rotate(0 19.723994629946446 32.34476710141246)"><path d="M18.3 43.37 C24.41 47.73, 30.75 53.92, 39.2 60.4 M16.88 45.11 C26.35 51.74, 34.55 57.37, 41.34 62.26" stroke="#1e1e1e" stroke-width="1" fill="none"></path></g><g transform="translate(423.78513210055434 506.57660590277845) rotate(0 19.723994629946446 32.34476710141246)"><path d="M35.33 31.9 C36.47 39.65, 37.82 49.2, 39.2 60.4 M33.9 33.65 C36.94 44.46, 38.75 54.39, 41.34 62.26" stroke="#1e1e1e" stroke-width="1" fill="none"></path></g></g><mask></mask><g stroke-linecap="round"><g transform="translate(399.74923113207075 507.31879340277845) rotate(0 20.416812191555664 68.7056680889703)"><path d="M-0.39 -1.06 C6.62 22.04, 34.45 115.41, 41.23 138.47 M1.6 1 C8.61 23.75, 34.46 113.76, 40.79 136.64" stroke="#1e1e1e" stroke-width="1" fill="none"></path></g><g transform="translate(399.74923113207075 507.31879340277845) rotate(0 20.416812191555664 68.7056680889703)"><path d="M21.47 113.92 C28.18 118.01, 30.27 125.29, 39.45 136.75 M22.89 111.82 C29.52 120.42, 35.55 131.01, 41.59 136.7" stroke="#1e1e1e" stroke-width="1" fill="none"></path></g><g transform="translate(399.74923113207075 507.31879340277845) rotate(0 20.416812191555664 68.7056680889703)"><path d="M41.22 108.34 C43.38 113.64, 40.94 122.21, 39.45 136.75 M42.63 106.24 C41.98 116.91, 40.7 129.57, 41.59 136.7" stroke="#1e1e1e" stroke-width="1" fill="none"></path></g></g><mask></mask><g stroke-linecap="round"><g transform="translate(386.85546875000006 508.32269965277845) rotate(0 21.555317995697237 124.28174592013005)"><path d="M-0.86 0.53 C1.66 21.24, 7.74 83.61, 15.21 124.99 C22.68 166.36, 39.31 228.41, 43.97 248.8 M0.89 -0.23 C3.35 20.04, 7.72 81.9, 14.87 123.1 C22.02 164.3, 38.99 226.12, 43.77 246.97" stroke="#1e1e1e" stroke-width="1" fill="none"></path></g><g transform="translate(386.85546875000006 508.32269965277845) rotate(0 21.555317995697237 124.28174592013005)"><path d="M27.9 224.01 C33.02 231.6, 39.02 237.84, 42.96 245.85 M27.76 223.07 C32.89 232.03, 40.77 240.39, 42.94 246.02" stroke="#1e1e1e" stroke-width="1" fill="none"></path></g><g transform="translate(386.85546875000006 508.32269965277845) rotate(0 21.555317995697237 124.28174592013005)"><path d="M47.82 219.06 C46.9 228.01, 46.82 235.76, 42.96 245.85 M47.67 218.12 C45.1 229.03, 45.25 239.31, 42.94 246.02" stroke="#1e1e1e" stroke-width="1" fill="none"></path></g></g><mask></mask><g stroke-linecap="round"><g transform="translate(377.58984375000006 509.87738715277845) rotate(0 3.4169203900871707 143.74101801984943)"><path d="M-0.59 0.3 C0.28 48.01, 4.06 239.09, 5.31 287 M1.3 -0.59 C2.51 47.19, 6.58 239.81, 7.42 288.07" stroke="#1e1e1e" stroke-width="1" fill="none"></path></g><g transform="translate(377.58984375000006 509.87738715277845) rotate(0 3.4169203900871707 143.74101801984943)"><path d="M-2.89 258.2 C-1.36 269.5, 3.2 275.99, 7.2 289.78 M-4.01 259.2 C1.28 270.76, 5.57 280.3, 6.42 288.95" stroke="#1e1e1e" stroke-width="1" fill="none"></path></g><g transform="translate(377.58984375000006 509.87738715277845) rotate(0 3.4169203900871707 143.74101801984943)"><path d="M17.63 257.79 C12.83 269.12, 11.05 275.74, 7.2 289.78 M16.5 258.8 C14.15 270.41, 10.78 280.1, 6.42 288.95" stroke="#1e1e1e" stroke-width="1" fill="none"></path></g></g><mask></mask><g transform="translate(415.19140625000006 1117.9516059027785) rotate(0 163.58993530273438 25)"><text x="0" y="0" font-family="Virgil, Segoe UI Emoji" font-size="20px" fill="#1e1e1e" text-anchor="start" style="white-space: pre;" direction="ltr" dominant-baseline="text-before-edge">чтобы понять стоит ли браться </text><text x="0" y="25" font-family="Virgil, Segoe UI Emoji" font-size="20px" fill="#1e1e1e" text-anchor="start" style="white-space: pre;" direction="ltr" dominant-baseline="text-before-edge">за привлекательную работу</text></g><g transform="translate(398.79296875000006 1038.3773871527785) rotate(0 205.26988220214844 25)"><text x="0" y="0" font-family="Virgil, Segoe UI Emoji" font-size="20px" fill="#1e1e1e" text-anchor="start" style="white-space: pre;" direction="ltr" dominant-baseline="text-before-edge">выбирать работу которая дает большую </text><text x="0" y="25" font-family="Virgil, Segoe UI Emoji" font-size="20px" fill="#1e1e1e" text-anchor="start" style="white-space: pre;" direction="ltr" dominant-baseline="text-before-edge">независимость</text></g><g transform="translate(407.99609375000006 1213.4906684027785) rotate(0 195.68991088867188 12.5)"><text x="0" y="0" font-family="Virgil, Segoe UI Emoji" font-size="20px" fill="#1e1e1e" text-anchor="start" style="white-space: pre;" direction="ltr" dominant-baseline="text-before-edge">получать признание за свои достижения</text></g><g transform="translate(555.84375 1278.6586371527785) rotate(0 126.3199234008789 12.5)"><text x="0" y="0" font-family="Virgil, Segoe UI Emoji" font-size="20px" fill="#1e1e1e" text-anchor="start" style="white-space: pre;" direction="ltr" dominant-baseline="text-before-edge">публиковать свои работы</text></g><g transform="translate(556.0546875 1320.4516059027785) rotate(0 136.44992065429688 12.5)"><text x="0" y="0" font-family="Virgil, Segoe UI Emoji" font-size="20px" fill="#1e1e1e" text-anchor="start" style="white-space: pre;" direction="ltr" dominant-baseline="text-before-edge">выступать на конференциях</text></g><g transform="translate(556.140625 1367.2914496527785) rotate(0 141.5198974609375 12.5)"><text x="0" y="0" font-family="Virgil, Segoe UI Emoji" font-size="20px" fill="#1e1e1e" text-anchor="start" style="white-space: pre;" direction="ltr" dominant-baseline="text-before-edge">создавать имя в своей сфере</text></g><g transform="translate(33.30078124999994 1138.2914496527785) rotate(0 148.6199188232422 50)"><text x="0" y="0" font-family="Virgil, Segoe UI Emoji" font-size="20px" fill="#1e1e1e" text-anchor="start" style="white-space: pre;" direction="ltr" dominant-baseline="text-before-edge">окружающие / работодатель </text><text x="0" y="25" font-family="Virgil, Segoe UI Emoji" font-size="20px" fill="#1e1e1e" text-anchor="start" style="white-space: pre;" direction="ltr" dominant-baseline="text-before-edge">будут стремиться ограничить </text><text x="0" y="50" font-family="Virgil, Segoe UI Emoji" font-size="20px" fill="#1e1e1e" text-anchor="start" style="white-space: pre;" direction="ltr" dominant-baseline="text-before-edge">вашу свободу и удержать </text><text x="0" y="75" font-family="Virgil, Segoe UI Emoji" font-size="20px" fill="#1e1e1e" text-anchor="start" style="white-space: pre;" direction="ltr" dominant-baseline="text-before-edge">на текущем месте</text></g><g stroke-linecap="round"><g transform="translate(369.15625000000006 1018.1156684027785) rotate(0 9.684200427043265 12.129920787150013)"><path d="M0.1 0.84 C3.56 4.67, 17.43 19.09, 20.68 22.72 M-1.31 0.23 C2 4.26, 15.84 20.13, 19.7 24.02" stroke="#1e1e1e" stroke-width="1" fill="none"></path></g><g transform="translate(369.15625000000006 1018.1156684027785) rotate(0 9.684200427043265 12.129920787150013)"><path d="M6.99 16.83 C9.35 17.51, 13.22 20.15, 19.11 24.87 M5.97 17.06 C8.73 18.82, 13.21 20.84, 19.26 23.54" stroke="#1e1e1e" stroke-width="1" fill="none"></path></g><g transform="translate(369.15625000000006 1018.1156684027785) rotate(0 9.684200427043265 12.129920787150013)"><path d="M14.8 9.63 C14.86 12.42, 16.46 17.16, 19.11 24.87 M13.78 9.86 C14.68 13.42, 17.27 17.18, 19.26 23.54" stroke="#1e1e1e" stroke-width="1" fill="none"></path></g></g><mask></mask><g stroke-linecap="round"><g transform="translate(351.8045638784109 1016.0805121527785) rotate(0 28.10195968005371 65.65822727060379)"><path d="M-0.32 -0.62 C9.09 21.19, 47.26 108.96, 56.53 130.88 M1.71 1.67 C10.99 23.59, 46.42 110.25, 55.74 131.94" stroke="#1e1e1e" stroke-width="1" fill="none"></path></g><g transform="translate(351.8045638784109 1016.0805121527785) rotate(0 28.10195968005371 65.65822727060379)"><path d="M34.37 110.41 C40.03 115.05, 46.23 123.92, 54.02 130.93 M36.36 108.98 C44.19 119.26, 52.64 128.02, 55.7 132" stroke="#1e1e1e" stroke-width="1" fill="none"></path></g><g transform="translate(351.8045638784109 1016.0805121527785) rotate(0 28.10195968005371 65.65822727060379)"><path d="M53.3 102.5 C53.24 109.47, 53.72 120.74, 54.02 130.93 M55.29 101.06 C55.72 114.53, 56.68 126.42, 55.7 132" stroke="#1e1e1e" stroke-width="1" fill="none"></path></g></g><mask></mask><g stroke-linecap="round"><g transform="translate(338.4601341099639 1011.5101996527785) rotate(0 31.017782761720127 113.51439154817467)"><path d="M-0.32 -0.1 C9.96 38.03, 51.8 190.39, 62.36 228.23 M1.71 -1.2 C11.8 36.66, 51.33 188.43, 61.5 226.65" stroke="#1e1e1e" stroke-width="1" fill="none"></path></g><g transform="translate(338.4601341099639 1011.5101996527785) rotate(0 31.017782761720127 113.51439154817467)"><path d="M44.23 202.29 C52.06 212.19, 55.95 217.79, 61.67 228.42 M44.66 202.79 C48.06 208.38, 52.47 212.75, 61.5 226.57" stroke="#1e1e1e" stroke-width="1" fill="none"></path></g><g transform="translate(338.4601341099639 1011.5101996527785) rotate(0 31.017782761720127 113.51439154817467)"><path d="M64.08 197.07 C64.85 208.77, 61.71 216.22, 61.67 228.42 M64.5 197.57 C63.43 204.51, 63.36 210.06, 61.5 226.57" stroke="#1e1e1e" stroke-width="1" fill="none"></path></g></g><mask></mask><g stroke-linecap="round"><g transform="translate(528.1484375 1238.9984809027785) rotate(0 10.22252793488559 26.0907759211957)"><path d="M-0.2 -0.56 C3.53 8.08, 18.52 44.04, 22.21 52.74 M-1.77 1.77 C1.91 9.94, 17.86 42.33, 21.75 50.79" stroke="#1e1e1e" stroke-width="1" fill="none"></path></g><g transform="translate(528.1484375 1238.9984809027785) rotate(0 10.22252793488559 26.0907759211957)"><path d="M0.64 32.51 C7.98 37.73, 11.81 43.97, 19.83 49.24 M0.88 31.16 C8.62 37.93, 15.48 45.01, 21.46 50.79" stroke="#1e1e1e" stroke-width="1" fill="none"></path></g><g transform="translate(528.1484375 1238.9984809027785) rotate(0 10.22252793488559 26.0907759211957)"><path d="M18.1 24.17 C20.57 31.72, 19.47 40.31, 19.83 49.24 M18.34 22.83 C19.91 32.4, 20.53 42.47, 21.46 50.79" stroke="#1e1e1e" stroke-width="1" fill="none"></path></g></g><mask></mask><g stroke-linecap="round"><g transform="translate(498.08593750000006 1247.4281684027785) rotate(0 25.247424657451916 45.70196798664051)"><path d="M0.43 0.19 C8.87 15.61, 42.73 77.16, 51.3 92.17 M-0.8 -0.76 C7.37 14.39, 41.42 75.35, 50.05 90.66" stroke="#1e1e1e" stroke-width="1" fill="none"></path></g><g transform="translate(498.08593750000006 1247.4281684027785) rotate(0 25.247424657451916 45.70196798664051)"><path d="M27.63 70.13 C37.34 77.87, 42.19 84.76, 51.65 88.73 M27.05 70.84 C32.09 76.14, 37.2 79.77, 49.99 90.99" stroke="#1e1e1e" stroke-width="1" fill="none"></path></g><g transform="translate(498.08593750000006 1247.4281684027785) rotate(0 25.247424657451916 45.70196798664051)"><path d="M45.53 60.1 C48.83 71.48, 47.3 81.95, 51.65 88.73 M44.95 60.81 C45.83 68.27, 46.87 74.18, 49.99 90.99" stroke="#1e1e1e" stroke-width="1" fill="none"></path></g></g><mask></mask><g stroke-linecap="round"><g transform="translate(471.88671875000006 1245.1664496527785) rotate(0 38.24846311283767 66.39803043390168)"><path d="M-0.29 -0.28 C12.04 21.96, 61.82 112, 74.66 134.27 M1.76 -1.48 C14.38 20.32, 64.33 109.66, 76.79 132.31" stroke="#1e1e1e" stroke-width="1" fill="none"></path></g><g transform="translate(471.88671875000006 1245.1664496527785) rotate(0 38.24846311283767 66.39803043390168)"><path d="M53.65 110.78 C62.87 121.35, 69.5 125.05, 78.34 132.64 M54.94 113.18 C62.03 118.97, 68.85 125.33, 77.71 131.64" stroke="#1e1e1e" stroke-width="1" fill="none"></path></g><g transform="translate(471.88671875000006 1245.1664496527785) rotate(0 38.24846311283767 66.39803043390168)"><path d="M71.59 100.81 C74.44 114.91, 74.65 122.18, 78.34 132.64 M72.88 103.21 C74.41 111.96, 75.67 121.4, 77.71 131.64" stroke="#1e1e1e" stroke-width="1" fill="none"></path></g></g><mask></mask><g transform="translate(832.24609375 1099.0687934027785) rotate(0 202.31985473632812 50)"><text x="0" y="0" font-family="Virgil, Segoe UI Emoji" font-size="20px" fill="#1e1e1e" text-anchor="start" style="white-space: pre;" direction="ltr" dominant-baseline="text-before-edge">правило финансовой устойчивости:</text><text x="0" y="25" font-family="Virgil, Segoe UI Emoji" font-size="20px" fill="#1e1e1e" text-anchor="start" style="white-space: pre;" direction="ltr" dominant-baseline="text-before-edge">браться за работу/проект только </text><text x="0" y="50" font-family="Virgil, Segoe UI Emoji" font-size="20px" fill="#1e1e1e" text-anchor="start" style="white-space: pre;" direction="ltr" dominant-baseline="text-before-edge">если за него будут платить </text><text x="0" y="75" font-family="Virgil, Segoe UI Emoji" font-size="20px" fill="#1e1e1e" text-anchor="start" style="white-space: pre;" direction="ltr" dominant-baseline="text-before-edge">(критерий востребованности в обществе)</text></g><g stroke-linecap="round"><g transform="translate(751.44140625 1139.5623826518379) rotate(0 34.957147672027304 -4.924758815004907)"><path d="M-0.6 -0.54 C10.96 -2.22, 58.41 -8.23, 70.51 -9.79 M1.29 1.79 C12.53 -0.27, 57.53 -9.33, 69.27 -11.64" stroke="#1e1e1e" stroke-width="1" fill="none"></path></g><g transform="translate(751.44140625 1139.5623826518379) rotate(0 34.957147672027304 -4.924758815004907)"><path d="M42.71 2.98 C54.7 -0.62, 64.73 -10.19, 67.89 -12.73 M42.82 4.25 C52.02 -1.93, 58.91 -6.96, 69.31 -12.52" stroke="#1e1e1e" stroke-width="1" fill="none"></path></g><g transform="translate(751.44140625 1139.5623826518379) rotate(0 34.957147672027304 -4.924758815004907)"><path d="M38.71 -17.14 C52.33 -12.69, 63.96 -14.22, 67.89 -12.73 M38.81 -15.88 C49.45 -15.71, 57.6 -14.38, 69.31 -12.52" stroke="#1e1e1e" stroke-width="1" fill="none"></path></g></g><mask></mask><g transform="translate(1323.2593315972217 322.9056803385426) rotate(0 207.9598846435547 25)"><text x="0" y="0" font-family="Virgil, Segoe UI Emoji" font-size="20px" fill="#1e1e1e" text-anchor="start" style="white-space: pre;" direction="ltr" dominant-baseline="text-before-edge">4) Миссия - благородная цель, </text><text x="0" y="25" font-family="Virgil, Segoe UI Emoji" font-size="20px" fill="#1e1e1e" text-anchor="start" style="white-space: pre;" direction="ltr" dominant-baseline="text-before-edge">вокруг которой строиться трудовая жизнь</text></g><g stroke-linecap="round" transform="translate(1291.8661024305557 310.6006944444452) rotate(0 235.5447048611111 42.931857638888914)"><path d="M21.47 0 M21.47 0 C169.6 -0.08, 315.18 0.1, 449.62 0 M21.47 0 C173.56 -1.92, 326.78 -0.91, 449.62 0 M449.62 0 C462.24 0.83, 472.23 5.18, 471.09 21.47 M449.62 0 C463.61 -2.02, 471.96 8.75, 471.09 21.47 M471.09 21.47 C470.3 32.69, 469.51 43.19, 471.09 64.4 M471.09 21.47 C470.69 38.01, 471.03 52.89, 471.09 64.4 M471.09 64.4 C472.36 77.96, 464.22 87.83, 449.62 85.86 M471.09 64.4 C473.13 76.89, 463.25 85.13, 449.62 85.86 M449.62 85.86 C309.06 84.54, 169.09 84.29, 21.47 85.86 M449.62 85.86 C293.79 84.69, 137.66 84.5, 21.47 85.86 M21.47 85.86 C9.09 87, 0.65 78.12, 0 64.4 M21.47 85.86 C7.99 85.78, 2.17 77.75, 0 64.4 M0 64.4 C1.14 54.55, -0.13 43.02, 0 21.47 M0 64.4 C-0.97 50.17, 0.75 34.06, 0 21.47 M0 21.47 C-1 8.69, 5.64 -0.82, 21.47 0 M0 21.47 C0.85 8.29, 5.66 0.03, 21.47 0" stroke="#1e1e1e" stroke-width="1" fill="none"></path></g><g transform="translate(1666.8661024305557 440.7699652777786) rotate(0 104.83995056152344 37.50000000000003)"><text x="0" y="0" font-family="Virgil, Segoe UI Emoji" font-size="20px" fill="#1e1e1e" text-anchor="start" style="white-space: pre;" direction="ltr" dominant-baseline="text-before-edge">иметь достаточно </text><text x="0" y="25" font-family="Virgil, Segoe UI Emoji" font-size="20px" fill="#1e1e1e" text-anchor="start" style="white-space: pre;" direction="ltr" dominant-baseline="text-before-edge">мастерства,</text><text x="0" y="50" font-family="Virgil, Segoe UI Emoji" font-size="20px" fill="#1e1e1e" text-anchor="start" style="white-space: pre;" direction="ltr" dominant-baseline="text-before-edge">карьерного капитала</text></g><g transform="translate(1654.561414930556 549.8975694444453) rotate(0 147.3399200439453 37.5)"><text x="0" y="0" font-family="Virgil, Segoe UI Emoji" font-size="20px" fill="#1e1e1e" text-anchor="start" style="white-space: pre;" direction="ltr" dominant-baseline="text-before-edge">постоянно отслеживать </text><text x="0" y="25" font-family="Virgil, Segoe UI Emoji" font-size="20px" fill="#1e1e1e" text-anchor="start" style="white-space: pre;" direction="ltr" dominant-baseline="text-before-edge">смежные возможности </text><text x="0" y="50" font-family="Virgil, Segoe UI Emoji" font-size="20px" fill="#1e1e1e" text-anchor="start" style="white-space: pre;" direction="ltr" dominant-baseline="text-before-edge">это источник прорывных идей</text></g><g mask="url(#mask-WStcKgLpCAtvpyKE2FEj6)" stroke-linecap="round"><g transform="translate(1498.1574844188497 399.4548611111119) rotate(0 80.97706668327999 54.780928772939234)"><path d="M-1.16 -0.82 C25.62 17.66, 133.72 91.82, 160.79 110.38 M0.43 1.37 C27.59 19.54, 136.45 90.77, 163.11 108.67" stroke="#1e1e1e" stroke-width="1" fill="none"></path></g><g transform="translate(1498.1574844188497 399.4548611111119) rotate(0 80.97706668327999 54.780928772939234)"><path d="M132.58 100.43 C144.26 103.71, 153.62 107.71, 163.07 107.24 M133.2 101.56 C140.07 102.78, 149.15 105.03, 163.14 107.71" stroke="#1e1e1e" stroke-width="1" fill="none"></path></g><g transform="translate(1498.1574844188497 399.4548611111119) rotate(0 80.97706668327999 54.780928772939234)"><path d="M143.9 83.31 C152.01 91.79, 157.85 101.11, 163.07 107.24 M144.52 84.45 C148.69 89.78, 155.02 96.2, 163.14 107.71" stroke="#1e1e1e" stroke-width="1" fill="none"></path></g></g><mask id="mask-WStcKgLpCAtvpyKE2FEj6"><rect x="0" y="0" fill="#fff" width="1759.6959635416665" height="609.0564649221037"></rect><rect x="1525.5667691462734" y="441.7556630166078" fill="#000" width="106.71990966796875" height="25" opacity="1"></rect></mask><g transform="translate(1525.5667691462736 441.7556630166078) rotate(0 53.56778195585605 12.480126867443317)"><text x="53.359954833984375" y="0" font-family="Virgil, Segoe UI Emoji" font-size="20px" fill="#1e1e1e" text-anchor="middle" style="white-space: pre;" direction="ltr" dominant-baseline="text-before-edge">необходимо</text></g><g mask="url(#mask-wgqEbypeA4vjqgprHzuA2)" stroke-linecap="round"><g transform="translate(1478.366385138063 407.8750000000008) rotate(0 84.63635150150708 101.65938724683994)"><path d="M0.47 -0.15 C28.67 33.7, 141.9 169.37, 170.02 203.12 M-0.75 -1.27 C27.31 32.77, 141.33 170.5, 169.53 204.59" stroke="#1e1e1e" stroke-width="1" fill="none"></path></g><g transform="translate(1478.366385138063 407.8750000000008) rotate(0 84.63635150150708 101.65938724683994)"><path d="M143.41 190.88 C152.9 194.94, 161.12 201.99, 171.19 203.86 M143.22 189.77 C150.58 193.52, 157.86 198.1, 168.86 205.51" stroke="#1e1e1e" stroke-width="1" fill="none"></path></g><g transform="translate(1478.366385138063 407.8750000000008) rotate(0 84.63635150150708 101.65938724683994)"><path d="M159.22 177.79 C162.93 186.71, 165.37 198.54, 171.19 203.86 M159.03 176.68 C161.72 184.14, 164.4 192.53, 168.86 205.51" stroke="#1e1e1e" stroke-width="1" fill="none"></path></g></g><mask id="mask-wgqEbypeA4vjqgprHzuA2"><rect x="0" y="0" fill="#fff" width="1747.508463541667" height="711.1249343955046"></rect><rect x="1509.5774695058803" y="496.9999671977527" fill="#000" width="106.71990966796875" height="25" opacity="1"></rect></mask><g transform="translate(1509.5774695058806 496.99996719775265) rotate(0 53.42526713368943 12.534420049088027)"><text x="53.359954833984375" y="0" font-family="Virgil, Segoe UI Emoji" font-size="20px" fill="#1e1e1e" text-anchor="middle" style="white-space: pre;" direction="ltr" dominant-baseline="text-before-edge">необходимо</text></g><g transform="translate(1391.6404079861113 702.5147569444453) rotate(0 113.25992584228516 25)"><text x="0" y="0" font-family="Virgil, Segoe UI Emoji" font-size="20px" fill="#1e1e1e" text-anchor="start" style="white-space: pre;" direction="ltr" dominant-baseline="text-before-edge">осторожные попытки </text><text x="0" y="25" font-family="Virgil, Segoe UI Emoji" font-size="20px" fill="#1e1e1e" text-anchor="start" style="white-space: pre;" direction="ltr" dominant-baseline="text-before-edge">сформулировать миссию</text></g><g transform="translate(1382.3869357638882 1089.3984375000007) rotate(0 137.06991577148438 12.5)"><text x="0" y="0" font-family="Virgil, Segoe UI Emoji" font-size="20px" fill="#1e1e1e" text-anchor="start" style="white-space: pre;" direction="ltr" dominant-baseline="text-before-edge">исследовательские проекты</text></g><g transform="translate(1140.4381510416663 883.9079861111115) rotate(0 122.28993225097656 25)"><text x="0" y="0" font-family="Virgil, Segoe UI Emoji" font-size="20px" fill="#1e1e1e" text-anchor="start" style="white-space: pre;" direction="ltr" dominant-baseline="text-before-edge">публикация результатов </text><text x="0" y="25" font-family="Virgil, Segoe UI Emoji" font-size="20px" fill="#1e1e1e" text-anchor="start" style="white-space: pre;" direction="ltr" dominant-baseline="text-before-edge">проекта, критика</text></g><g transform="translate(1632.5692274305552 877.0980902777785) rotate(0 138.25991821289062 25)"><text x="0" y="0" font-family="Virgil, Segoe UI Emoji" font-size="20px" fill="#1e1e1e" text-anchor="start" style="white-space: pre;" direction="ltr" dominant-baseline="text-before-edge">знакомство с новыми идеями</text><text x="0" y="25" font-family="Virgil, Segoe UI Emoji" font-size="20px" fill="#1e1e1e" text-anchor="start" style="white-space: pre;" direction="ltr" dominant-baseline="text-before-edge"> и их комбинациями</text></g><g stroke-linecap="round" transform="translate(1351.6143663194441 681.1388888888896) rotate(0 157.89713541666663 49.51388888888886)"><path d="M148.4 -0.51 C165.19 -1.52, 185.38 0.75, 202.52 2.55 C219.65 4.34, 236.58 6.86, 251.21 10.25 C265.84 13.65, 280.37 18.43, 290.3 22.92 C300.22 27.42, 306.58 31.83, 310.77 37.21 C314.95 42.58, 317.34 49.46, 315.4 55.19 C313.47 60.92, 307.18 66.63, 299.16 71.58 C291.13 76.54, 280.27 81.06, 267.25 84.9 C254.24 88.74, 237.66 92.38, 221.04 94.63 C204.43 96.87, 185.58 97.99, 167.58 98.37 C149.57 98.76, 130.3 98.44, 113.01 96.93 C95.73 95.42, 78.32 92.53, 63.89 89.31 C49.45 86.08, 36.42 82.17, 26.4 77.58 C16.38 73, 7.88 67.28, 3.77 61.77 C-0.34 56.27, -0.36 50.19, 1.72 44.58 C3.79 38.96, 8.26 33.1, 16.24 28.07 C24.22 23.05, 36.53 18.34, 49.6 14.43 C62.67 10.51, 76.7 6.84, 94.65 4.58 C112.6 2.32, 144.95 1.4, 157.28 0.87 C169.61 0.34, 168.55 0.57, 168.62 1.41 M119.11 0.24 C135.22 -1.8, 156.5 -1.36, 174.62 -0.42 C192.74 0.51, 211.59 3.41, 227.84 5.86 C244.08 8.32, 259.89 10.23, 272.08 14.32 C284.26 18.41, 293.56 25.12, 300.96 30.39 C308.35 35.67, 314.99 40.42, 316.45 45.99 C317.91 51.55, 314.68 58.18, 309.73 63.77 C304.79 69.36, 297.46 74.91, 286.8 79.53 C276.14 84.15, 260.9 88.46, 245.76 91.47 C230.62 94.48, 213.46 96.35, 195.95 97.59 C178.44 98.83, 158.35 99.55, 140.7 98.89 C123.05 98.22, 106.28 96.2, 90.06 93.61 C73.84 91.02, 56.07 87.26, 43.39 83.33 C30.71 79.39, 21.25 75.07, 14.01 69.99 C6.76 64.91, 1.29 58.29, -0.07 52.85 C-1.42 47.41, 0.97 42.83, 5.88 37.35 C10.8 31.88, 18.98 24.7, 29.43 20 C39.87 15.31, 53.39 12.34, 68.53 9.19 C83.67 6.04, 111.7 2.16, 120.27 1.08 C128.83 -0.01, 119.28 1.66, 119.91 2.69" stroke="#1e1e1e" stroke-width="1" fill="none"></path></g><g stroke-linecap="round" transform="translate(1105.047526041666 863.3437500000007) rotate(0 153.37456597222217 48.97352430555554)"><path d="M85.62 5.32 C99.37 2.2, 118.34 0.21, 135.54 -0.42 C152.74 -1.04, 171.66 0.17, 188.81 1.58 C205.96 2.99, 223.89 5.05, 238.44 8.05 C252.99 11.06, 265.68 15, 276.12 19.61 C286.55 24.22, 295.98 30.35, 301.04 35.72 C306.1 41.09, 307.62 46.36, 306.49 51.83 C305.36 57.3, 301.21 63.39, 294.26 68.55 C287.31 73.7, 277 78.71, 264.81 82.79 C252.63 86.86, 236.88 90.41, 221.16 92.98 C205.44 95.55, 187.74 97.49, 170.48 98.21 C153.21 98.92, 134.62 98.68, 117.58 97.27 C100.53 95.86, 82.74 92.81, 68.2 89.73 C53.66 86.65, 40.77 83.38, 30.32 78.79 C19.87 74.2, 10.49 67.49, 5.5 62.17 C0.5 56.85, -0.78 52.25, 0.36 46.86 C1.5 41.47, 5.46 35.19, 12.34 29.84 C19.22 24.48, 28.37 19.11, 41.64 14.74 C54.91 10.37, 82.28 5.34, 91.95 3.62 C101.63 1.91, 98.65 3.73, 99.71 4.45 M91.88 2.55 C106.33 -0.16, 128.59 0.02, 146.48 -0.01 C164.37 -0.03, 182.72 0.93, 199.22 2.38 C215.72 3.83, 231.52 5.3, 245.48 8.69 C259.45 12.07, 273.6 17.78, 283.03 22.67 C292.47 27.56, 298.39 32.85, 302.12 38.03 C305.84 43.2, 307.64 48.17, 305.4 53.7 C303.16 59.22, 296.69 65.81, 288.67 71.17 C280.66 76.52, 270.02 82.14, 257.32 85.83 C244.62 89.51, 228.52 91.15, 212.46 93.29 C196.4 95.43, 178.01 98.25, 160.94 98.68 C143.87 99.11, 126.5 97.54, 110.03 95.87 C93.56 94.2, 76.41 92, 62.14 88.64 C47.87 85.28, 34.19 80.52, 24.4 75.71 C14.61 70.9, 7.46 65, 3.41 59.77 C-0.63 54.53, -2.13 49.68, 0.12 44.33 C2.36 38.97, 8.59 32.61, 16.89 27.64 C25.19 22.67, 37.09 18.43, 49.9 14.53 C62.72 10.63, 86.14 5.97, 93.78 4.23 C101.42 2.48, 94.65 3.28, 95.75 4.06" stroke="#1e1e1e" stroke-width="1" fill="none"></path></g><g stroke-linecap="round" transform="translate(1600.555338541666 856.2039930555561) rotate(0 170.81163194444434 48.828125)"><path d="M94.08 4.86 C109.28 1.75, 131.48 1.24, 150.78 0.66 C170.08 0.09, 190.83 0.06, 209.88 1.41 C228.94 2.77, 248.73 5.85, 265.11 8.79 C281.5 11.74, 296.76 14.85, 308.19 19.07 C319.63 23.3, 328.12 28.88, 333.72 34.14 C339.32 39.4, 342.67 45.15, 341.82 50.64 C340.97 56.13, 336.19 61.68, 328.63 67.08 C321.07 72.49, 309.95 78.84, 296.45 83.06 C282.95 87.28, 265.02 90.19, 247.62 92.41 C230.23 94.63, 211.23 95.67, 192.1 96.38 C172.97 97.08, 152.02 97.65, 132.84 96.66 C113.66 95.68, 93.62 93.68, 77.03 90.48 C60.44 87.28, 44.97 82.12, 33.29 77.44 C21.61 72.76, 12.59 67.6, 6.95 62.41 C1.31 57.22, -1.74 51.9, -0.55 46.28 C0.64 40.66, 6.34 33.95, 14.07 28.69 C21.8 23.42, 31.31 18.72, 45.84 14.68 C60.37 10.64, 90.69 6.06, 101.23 4.44 C111.77 2.83, 107.87 4.27, 109.08 4.97 M204.91 0.75 C223.7 1.38, 244.61 5.74, 261.27 8.71 C277.93 11.68, 292.71 14.25, 304.88 18.54 C317.04 22.83, 328.28 29.28, 334.26 34.43 C340.24 39.58, 341.74 44.05, 340.75 49.45 C339.75 54.85, 335.09 61.36, 328.3 66.84 C321.52 72.33, 312.52 78.4, 300.05 82.37 C287.58 86.33, 270.76 88.13, 253.5 90.64 C236.24 93.15, 216.08 96.55, 196.5 97.43 C176.92 98.3, 155.15 97, 135.99 95.9 C116.84 94.8, 98.07 93.36, 81.58 90.81 C65.08 88.25, 48.97 85.16, 37.05 80.56 C25.13 75.96, 16.09 68.57, 10.03 63.23 C3.97 57.88, 0.41 53.94, 0.71 48.48 C1.01 43.02, 4.61 35.6, 11.83 30.46 C19.05 25.31, 31.26 21.76, 44 17.62 C56.74 13.48, 71.27 8.36, 88.25 5.6 C105.23 2.85, 126.16 1.9, 145.89 1.1 C165.61 0.29, 196.94 0.79, 206.59 0.79 C216.24 0.79, 204.52 0.23, 203.79 1.1" stroke="#1e1e1e" stroke-width="1" fill="none"></path></g><g stroke-linecap="round" transform="translate(1354.7393663194434 1066.1822916666672) rotate(0 173.7456597222224 38.185763888888914)"><path d="M213.2 0.58 C232.2 0.81, 251.58 3.31, 268.16 5.61 C284.74 7.9, 300.58 10.79, 312.7 14.36 C324.82 17.92, 335.04 22.7, 340.89 26.98 C346.73 31.26, 348.94 35.6, 347.8 40.02 C346.65 44.44, 341.68 49.49, 333.99 53.51 C326.3 57.53, 315.24 61, 301.67 64.12 C288.1 67.25, 270.26 70.42, 252.56 72.26 C234.86 74.11, 215.29 74.56, 195.48 75.2 C175.66 75.84, 153.24 76.79, 133.68 76.1 C114.13 75.4, 94.64 73.39, 78.14 71.01 C61.64 68.64, 46.49 65.49, 34.66 61.84 C22.84 58.2, 12.77 53.29, 7.2 49.16 C1.63 45.02, 0.19 41.25, 1.23 37.02 C2.27 32.79, 6.03 27.82, 13.44 23.76 C20.85 19.71, 32.06 15.85, 45.69 12.71 C59.33 9.58, 77.31 7.05, 95.25 4.95 C113.19 2.84, 132.62 0.66, 153.35 0.08 C174.08 -0.49, 207.33 0.93, 219.66 1.52 C231.98 2.11, 228.11 3.13, 227.32 3.62 M211.42 -0.15 C230.51 0.17, 250.9 2.74, 267.62 5.19 C284.34 7.63, 299.51 10.89, 311.72 14.52 C323.93 18.16, 334.95 22.9, 340.88 26.99 C346.81 31.08, 348.28 34.59, 347.31 39.06 C346.34 43.52, 342.85 49.77, 335.04 53.76 C327.24 57.75, 314.39 60, 300.48 63.02 C286.57 66.04, 269.37 69.92, 251.59 71.9 C233.81 73.87, 213.45 74.51, 193.83 74.86 C174.2 75.21, 152.8 74.78, 133.85 74 C114.89 73.22, 96.68 72.5, 80.08 70.18 C63.48 67.86, 46.43 63.73, 34.25 60.09 C22.07 56.45, 12.6 52.45, 6.98 48.31 C1.36 44.17, -0.44 39.46, 0.54 35.26 C1.53 31.05, 4.99 26.86, 12.89 23.08 C20.79 19.31, 34.55 15.92, 47.93 12.61 C61.3 9.3, 75.88 5.02, 93.12 3.21 C110.37 1.41, 131.38 2.04, 151.4 1.77 C171.41 1.51, 203.2 1.56, 213.23 1.63 C223.25 1.71, 212.39 1.53, 211.53 2.22" stroke="#1e1e1e" stroke-width="1" fill="none"></path></g><g stroke-linecap="round"><g transform="translate(1674.1707899305547 742.7447916666672) rotate(0 42.73633770984088 49.400151203221924)"><path d="M-0.84 -0.18 C8.47 5.25, 42.06 16.18, 56.59 32.77 C71.11 49.36, 81.33 87.93, 86.31 99.37 M0.93 -1.32 C10.55 4.22, 44.75 16.94, 58.93 33.85 C73.1 50.76, 81.26 89.2, 85.97 100.12" stroke="#1e1e1e" stroke-width="4" fill="none"></path></g><g transform="translate(1674.1707899305547 742.7447916666672) rotate(0 42.73633770984088 49.400151203221924)"><path d="M67.11 75.36 C72.75 86.63, 79.16 95.44, 87.58 98.97 M66.64 75.83 C72.55 82.38, 76.79 88.57, 86.18 99.59" stroke="#1e1e1e" stroke-width="4" fill="none"></path></g><g transform="translate(1674.1707899305547 742.7447916666672) rotate(0 42.73633770984088 49.400151203221924)"><path d="M86.61 68.95 C85.15 82.41, 84.47 93.56, 87.58 98.97 M86.14 69.42 C87.04 77.48, 86.26 85.31, 86.18 99.59" stroke="#1e1e1e" stroke-width="4" fill="none"></path></g></g><mask></mask><g stroke-linecap="round"><g transform="translate(1728.5197482638882 969.6284722222229) rotate(0 -34.3044126221879 50.91256783973944)"><path d="M-0.25 -0.07 C-3.11 9.53, -5.96 40.52, -17.53 57.46 C-29.1 74.39, -61.13 94.11, -69.68 101.53 M1.83 -1.15 C-1.12 8.11, -6.19 38.34, -18.23 55.69 C-30.28 73.05, -62.12 95.64, -70.43 102.98" stroke="#1e1e1e" stroke-width="4" fill="none"></path></g><g transform="translate(1728.5197482638882 969.6284722222229) rotate(0 -34.3044126221879 50.91256783973944)"><path d="M-55 78.11 C-57.96 84.25, -62.87 92.62, -69.31 101.2 M-53.99 78.06 C-60.57 86.62, -65.65 95.12, -71.02 103.96" stroke="#1e1e1e" stroke-width="4" fill="none"></path></g><g transform="translate(1728.5197482638882 969.6284722222229) rotate(0 -34.3044126221879 50.91256783973944)"><path d="M-42.15 94.11 C-48.56 95.91, -56.94 99.97, -69.31 101.2 M-41.14 94.06 C-52.2 96.94, -61.92 99.67, -71.02 103.96" stroke="#1e1e1e" stroke-width="4" fill="none"></path></g></g><mask></mask><g stroke-linecap="round"><g transform="translate(1374.3921440972217 1080.2057291666672) rotate(0 -51.10368810490456 -52.73146088297159)"><path d="M0.64 -0.44 C-10.02 -8.28, -47.37 -30.58, -64.54 -48.01 C-81.7 -65.45, -96.11 -95.58, -102.33 -105.03 M-0.48 -1.71 C-11.26 -9.3, -48.5 -29.64, -65.56 -46.73 C-82.62 -63.81, -96.92 -94.67, -102.85 -104.21" stroke="#1e1e1e" stroke-width="4" fill="none"></path></g><g transform="translate(1374.3921440972217 1080.2057291666672) rotate(0 -51.10368810490456 -52.73146088297159)"><path d="M-80.91 -84.81 C-86.51 -88.58, -93 -92.78, -103.9 -105.13 M-79.99 -84.78 C-86.06 -89.05, -89.74 -93.17, -103.43 -103.25" stroke="#1e1e1e" stroke-width="4" fill="none"></path></g><g transform="translate(1374.3921440972217 1080.2057291666672) rotate(0 -51.10368810490456 -52.73146088297159)"><path d="M-98.85 -74.83 C-99.86 -81.21, -101.84 -87.91, -103.9 -105.13 M-97.92 -74.81 C-99.85 -81.38, -99.47 -87.76, -103.43 -103.25" stroke="#1e1e1e" stroke-width="4" fill="none"></path></g></g><mask></mask><g mask="url(#mask-CCyRRKT000LTz9SBZEKCd)" stroke-linecap="round"><g transform="translate(1232.6299913194437 854.0512152777785) rotate(0 60.603287690346974 -46.7513083374335)"><path d="M0.05 1.04 C6.39 -6.51, 18.19 -28.56, 38.23 -44.49 C58.27 -60.42, 106.52 -86.21, 120.28 -94.54 M-1.38 0.54 C4.74 -7.4, 16.37 -30.49, 37.03 -46.11 C57.69 -61.73, 108.64 -85.33, 122.58 -93.19" stroke="#1e1e1e" stroke-width="4" fill="none"></path></g><g transform="translate(1232.6299913194437 854.0512152777785) rotate(0 60.603287690346974 -46.7513083374335)"><path d="M103.96 -71.93 C110.16 -80.05, 115.15 -86.23, 122.81 -93.58 M102.97 -71.79 C110.09 -79.58, 115.99 -86.81, 122.51 -93.01" stroke="#1e1e1e" stroke-width="4" fill="none"></path></g><g transform="translate(1232.6299913194437 854.0512152777785) rotate(0 60.603287690346974 -46.7513083374335)"><path d="M94.55 -90.17 C103.86 -92.49, 111.85 -92.86, 122.81 -93.58 M93.57 -90.03 C103.83 -91.66, 112.93 -92.69, 122.51 -93.01" stroke="#1e1e1e" stroke-width="4" fill="none"></path></g></g><mask id="mask-CCyRRKT000LTz9SBZEKCd"><rect x="0" y="0" fill="#fff" width="1454.0362413194437" height="1048.651909722223"></rect><rect x="1181.443600972492" y="783.6085069444446" fill="#000" width="179.7599334716797" height="50" opacity="1"></rect></mask><g transform="translate(1181.443600972492 783.6085069444445) rotate(0 111.78967803729836 23.69139999590044)"><text x="89.87996673583984" y="0" font-family="Virgil, Segoe UI Emoji" font-size="20px" fill="#1e1e1e" text-anchor="middle" style="white-space: pre;" direction="ltr" dominant-baseline="text-before-edge">обратная связь,</text><text x="89.87996673583984" y="25" font-family="Virgil, Segoe UI Emoji" font-size="20px" fill="#1e1e1e" text-anchor="middle" style="white-space: pre;" direction="ltr" dominant-baseline="text-before-edge">адаптация миссии</text></g><g transform="translate(1570.4251302083321 1176.9461805555559) rotate(0 98.57994079589844 25)"><text x="0" y="0" font-family="Virgil, Segoe UI Emoji" font-size="20px" fill="#1e1e1e" text-anchor="start" style="white-space: pre;" direction="ltr" dominant-baseline="text-before-edge">можно реализовать </text><text x="0" y="25" font-family="Virgil, Segoe UI Emoji" font-size="20px" fill="#1e1e1e" text-anchor="start" style="white-space: pre;" direction="ltr" dominant-baseline="text-before-edge">меньше чем за месяц</text></g><g transform="translate(1518.8496093749986 1256.3298611111115) rotate(0 152.31991577148438 25)"><text x="0" y="0" font-family="Virgil, Segoe UI Emoji" font-size="20px" fill="#1e1e1e" text-anchor="start" style="white-space: pre;" direction="ltr" dominant-baseline="text-before-edge">нацелен на создание новой </text><text x="0" y="25" font-family="Virgil, Segoe UI Emoji" font-size="20px" fill="#1e1e1e" text-anchor="start" style="white-space: pre;" direction="ltr" dominant-baseline="text-before-edge">ценности - навыка результата</text></g><g transform="translate(1447.9034288194434 1345.8611111111115) rotate(0 143.66990661621094 25)"><text x="0" y="0" font-family="Virgil, Segoe UI Emoji" font-size="20px" fill="#1e1e1e" text-anchor="start" style="white-space: pre;" direction="ltr" dominant-baseline="text-before-edge">конкретный результат, </text><text x="0" y="25" font-family="Virgil, Segoe UI Emoji" font-size="20px" fill="#1e1e1e" text-anchor="start" style="white-space: pre;" direction="ltr" dominant-baseline="text-before-edge">который можно опубликовать</text></g><g stroke-linecap="round"><g transform="translate(1531.037109374999 1153.057291666667) rotate(0 16.04698076808768 18.136885529672213)"><path d="M0.38 -0.38 C6.03 6.03, 27.75 31.8, 32.97 37.89 M-0.88 -1.62 C4.7 4.52, 26.26 29.85, 32.07 36.31" stroke="#1e1e1e" stroke-width="1" fill="none"></path></g><g transform="translate(1531.037109374999 1153.057291666667) rotate(0 16.04698076808768 18.136885529672213)"><path d="M9.82 24.55 C16.95 25.08, 18.93 30.14, 34.03 34.83 M10.7 23.61 C16.09 26.91, 20.45 29.99, 32.27 35.36" stroke="#1e1e1e" stroke-width="1" fill="none"></path></g><g transform="translate(1531.037109374999 1153.057291666667) rotate(0 16.04698076808768 18.136885529672213)"><path d="M22.55 13.44 C26.78 16.49, 25.92 24.03, 34.03 34.83 M23.43 12.5 C26.01 18.16, 27.53 23.71, 32.27 35.36" stroke="#1e1e1e" stroke-width="1" fill="none"></path></g></g><mask></mask><g stroke-linecap="round"><g transform="translate(1506.7532552083321 1154.3550347222224) rotate(0 8.384036044751156 49.194777877663114)"><path d="M0.96 0.7 C3.86 16.94, 14.21 80.96, 16.76 97.21 M0.01 0.02 C2.82 16.42, 13.3 81.76, 15.84 98.36" stroke="#1e1e1e" stroke-width="1" fill="none"></path></g><g transform="translate(1506.7532552083321 1154.3550347222224) rotate(0 8.384036044751156 49.194777877663114)"><path d="M2.49 72.23 C3.64 77.74, 8.85 83.32, 14.98 99.4 M1.4 71.93 C5.82 81.65, 11.41 91, 15.62 99.04" stroke="#1e1e1e" stroke-width="1" fill="none"></path></g><g transform="translate(1506.7532552083321 1154.3550347222224) rotate(0 8.384036044751156 49.194777877663114)"><path d="M22.76 69.03 C18.91 75.5, 19.13 81.86, 14.98 99.4 M21.67 68.73 C18.8 79.44, 17.08 89.94, 15.62 99.04" stroke="#1e1e1e" stroke-width="1" fill="none"></path></g></g><mask></mask><g stroke-linecap="round"><g transform="translate(1485.4424913194434 1148.1050347222224) rotate(0 -14.854421603265905 95.50193940588031)"><path d="M0.64 -0.42 C-4.36 31.89, -25.18 160.79, -30.35 192.69 M-0.48 -1.68 C-5.07 30.42, -23.48 158.85, -28.06 191.12" stroke="#1e1e1e" stroke-width="1" fill="none"></path></g><g transform="translate(1485.4424913194434 1148.1050347222224) rotate(0 -14.854421603265905 95.50193940588031)"><path d="M-34.93 160.43 C-31.1 168.21, -32.36 178.61, -28.51 191.58 M-33.44 160.88 C-33.24 168.24, -31.01 173.49, -27.49 191.85" stroke="#1e1e1e" stroke-width="1" fill="none"></path></g><g transform="translate(1485.4424913194434 1148.1050347222224) rotate(0 -14.854421603265905 95.50193940588031)"><path d="M-14.61 163.33 C-16.22 170.43, -22.94 180.06, -28.51 191.58 M-13.12 163.78 C-17.33 170.61, -19.48 175.23, -27.49 191.85" stroke="#1e1e1e" stroke-width="1" fill="none"></path></g></g><mask></mask><g stroke-linecap="round"><g transform="translate(1079.7636718749984 666.0546875) rotate(0 402.9847215868532 83.28747371494586)"><path d="M0.82 -0.73 C92.82 -3.58, 418.14 -49.13, 552.2 -16.54 C686.25 16.05, 763.07 159.42, 805.14 194.81" stroke="#1e1e1e" stroke-width="2.5" fill="none" stroke-dasharray="1.5 8"></path></g><g transform="translate(1079.7636718749984 666.0546875) rotate(0 402.9847215868532 83.28747371494586)"><path d="M777.7 181.14 C785.76 185.48, 794.93 189.27, 805.98 193.24" stroke="#1e1e1e" stroke-width="2.5" fill="none" stroke-dasharray="1.5 6"></path></g><g transform="translate(1079.7636718749984 666.0546875) rotate(0 402.9847215868532 83.28747371494586)"><path d="M793.19 167.69 C796.36 176.44, 800.57 184.53, 805.98 193.24" stroke="#1e1e1e" stroke-width="2.5" fill="none" stroke-dasharray="1.5 6"></path></g></g><mask></mask><g stroke-linecap="round"><g transform="translate(944.6386718749984 801.3515625) rotate(0 77.92487582936883 59.86319071277967)"><path d="M1.1 -0.4 C11.35 14.24, 35.43 68.79, 61.04 88.88 C86.65 108.96, 139.11 114.89, 154.75 120.13" stroke="#1e1e1e" stroke-width="2.5" fill="none" stroke-dasharray="1.5 8"></path></g><g transform="translate(944.6386718749984 801.3515625) rotate(0 77.92487582936883 59.86319071277967)"><path d="M124.29 124.55 C134.04 121.74, 140.82 121.07, 155.48 120.23" stroke="#1e1e1e" stroke-width="2.5" fill="none" stroke-dasharray="1.5 6"></path></g><g transform="translate(944.6386718749984 801.3515625) rotate(0 77.92487582936883 59.86319071277967)"><path d="M129 104.58 C137.71 106.99, 143.26 111.5, 155.48 120.23" stroke="#1e1e1e" stroke-width="2.5" fill="none" stroke-dasharray="1.5 6"></path></g></g><mask></mask><g transform="translate(874.4667968749984 22.765624999999943) rotate(0 46.34998321533203 12.5)"><text x="0" y="0" font-family="Virgil, Segoe UI Emoji" font-size="20px" fill="#1e1e1e" text-anchor="start" style="white-space: pre;" direction="ltr" dominant-baseline="text-before-edge">0) Старт</text></g><g stroke-linecap="round" transform="translate(852.2167968749984 10) rotate(0 71.53124999999989 24.69531249999997)"><path d="M12.35 0 M12.35 0 C36.76 2.13, 62.92 2.22, 130.71 0 M12.35 0 C58.34 1.56, 106.42 0.85, 130.71 0 M130.71 0 C136.98 -1.01, 141.86 2.31, 143.06 12.35 M130.71 0 C139.96 -0.6, 142.12 2.57, 143.06 12.35 M143.06 12.35 C143.31 19.05, 141.57 25.27, 143.06 37.04 M143.06 12.35 C142.21 22.66, 143.6 31.45, 143.06 37.04 M143.06 37.04 C141.47 43.42, 139.08 49.18, 130.71 49.39 M143.06 37.04 C143.42 46.66, 138.99 51.48, 130.71 49.39 M130.71 49.39 C95.61 50.19, 60.11 50.92, 12.35 49.39 M130.71 49.39 C83.99 50.4, 38.25 49.36, 12.35 49.39 M12.35 49.39 C5.38 47.76, 0.61 43.77, 0 37.04 M12.35 49.39 C3.47 47.23, 0.19 44.29, 0 37.04 M0 37.04 C1.67 31.94, 1.31 26.87, 0 12.35 M0 37.04 C-0.97 31.91, 0.61 26.41, 0 12.35 M0 12.35 C0.03 2.51, 4.57 1.55, 12.35 0 M0 12.35 C-0.4 5.94, 4.72 2.03, 12.35 0" stroke="#1e1e1e" stroke-width="1" fill="none"></path></g><g stroke-linecap="round"><g transform="translate(849.6621093749984 37.32812499999994) rotate(0 -158.58268787637354 26.993050823360683)"><path d="M-0.99 0.65 C-53.8 9.6, -263.73 44.59, -316.18 53.34" stroke="#1971c2" stroke-width="4.5" fill="none" stroke-dasharray="8 12"></path></g><g transform="translate(849.6621093749984 37.32812499999994) rotate(0 -158.58268787637354 26.993050823360683)"><path d="M-288.98 38.9 C-299.57 44.82, -309.29 49.27, -316.29 53.82" stroke="#1971c2" stroke-width="4.5" fill="none"></path></g><g transform="translate(849.6621093749984 37.32812499999994) rotate(0 -158.58268787637354 26.993050823360683)"><path d="M-285.6 59.15 C-297.34 57.79, -308.27 55.01, -316.29 53.82" stroke="#1971c2" stroke-width="4.5" fill="none"></path></g></g><mask></mask></svg>